<svg width="198" height="198" viewBox="0 0 198 198" fill="none" xmlns="http://www.w3.org/2000/svg">
<style>
    path {
        fill: #FFFFFF;
    }
    @media (prefers-color-scheme: light) {
        path { fill: #000000; }
    }
</style>
<path fill-rule="evenodd" clip-rule="evenodd" d="M198 99C198 153.676 153.676 198 99 198C44.3238 198 0 153.676 0 99C0 44.3238 44.3238 0 99 0C153.676 0 198 44.3238 198 99ZM147.434 56.8122L130.544 79.5368C109.067 65.4429 77.9087 73.4967 80.2079 101.684C82.5072 129.872 115.779 131.215 133.899 117.121L148.997 141.187C124.354 158.468 89.7822 162.867 64.1032 144.638C50.478 134.965 41.819 117.045 42.6262 97.6576C43.2064 83.7227 48.2322 72.2351 56.0495 63.4295C79.6366 36.8603 120.609 35.5266 147.434 56.8122Z" fill="black"/>
</svg>
